<svg xmlns="http://www.w3.org/2000/svg" width="19" height="19"><path data-name="Path 86" d="M9.5 0A9.5 9.5 0 1019 9.5 9.487 9.487 0 009.5 0zM8.36 3.188a1.435 1.435 0 011.034-.422A1.442 1.442 0 0110.83 4.2a1.471 1.471 0 01-.422 1.034 1.386 1.386 0 01-1.013.422 1.471 1.471 0 01-1.035-.42 1.386 1.386 0 01-.422-1.013 1.4 1.4 0 01.422-1.035zm3.716 12.6H7.114v-.823h.549a.717.717 0 00.612-.211 1.019 1.019 0 00.19-.7V9.268a.877.877 0 00-.274-.7.993.993 0 00-.718-.253h-.359v-.8l3.673-.169v7.009a.6.6 0 00.169.443.849.849 0 00.549.148h.549l.021.844z" fill="#0b0c0c"/></svg>
