<svg xmlns="http://www.w3.org/2000/svg" width="548.313" height="42.998"><g data-name="Group 644"><path data-name="Rectangle 144" fill="#d77900" d="M62.088 14.998h455v28h-455z"/><path data-name="Intersection 6" d="M335.922 42.998c-21.152-8.393-53.531-23.428-63.6-29.172-5.994-3.414-13.861-8.619-21.672-13.824h1.973c7.322 4.887 14.609 9.674 20.227 12.889 10.482 5.973 45.1 22.01 65.986 30.107zm-14.26 0c-5.1-2.27-10.037-4.609-14.785-6.855-6.861-3.252-13.367-6.334-19.678-8.932-8.08-3.293-17.006-7.736-25.631-12.031-14.029-6.967-27.291-13.574-34.709-14.3-10.842-1.059-23.871 15.709-30.307 39a31.864 31.864 0 0 0-.7 3.117h-2.182a33.221 33.221 0 0 1 .8-3.672C199.279 21.911 208.993 4.78 219.9.001h12.9c7.85 2.391 18.541 7.707 29.719 13.268 8.611 4.271 17.49 8.7 25.482 11.99 6.357 2.615 12.883 5.7 19.791 8.967 6.281 2.977 12.639 5.988 19.137 8.771zm-20.291 0c-6.605-2.18-12.725-3.861-17.426-4.371a20.47 20.47 0 0 0-14.824 4.371h-1.8c5.395-4.336 11.283-6.043 16.736-5.453 5.588.611 12.865 2.736 20.752 5.453zm-161.525 0c-2.262-12.963-.877-25.328 11.99-35.234a406.96 406.96 0 0 0 9.766-7.762h1.713a407.665 407.665 0 0 1-10.846 8.637c-12.451 9.58-13.771 21.662-11.541 34.359zm-35.3 0c-1.4-6.1-1.736-12.895 1.215-18.318l.994-1.834c4.324-7.984 7.443-13.756 17.207-22.844h3.182c-10.854 9.773-14 15.59-18.455 23.82l-1.041 1.834c-2.719 5.008-2.289 11.5-.877 17.342zm-3.193 0c-1.225-4.691-1.82-9.035-.844-11.355A224.873 224.873 0 0 1 117.501.002h1.357a228.66 228.66 0 0 0-17.35 32.061c-.908 2.16-.285 6.367.939 10.936zm-5.437 0a16.326 16.326 0 0 1 .045-8.287c2.076-6.287 8.227-20.215 16.553-34.709h2.449c-8.541 14.707-14.865 28.988-16.961 35.355a14.724 14.724 0 0 0 .1 7.641zm-6.646 0c.855-9.182 9.156-32.252 14.2-43h1.172c-4.973 10.445-13.473 33.887-14.307 43zm-5.318 0c.125-.494.262-1.031.4-1.607 1.662-6.377 4.4-17.09 4.211-23.021-.15-4.67-2.508-12.559-5.588-18.367h2.451c3.025 6.02 5.172 13.564 5.326 18.309.213 6.246-2.592 17.129-4.254 23.635L86.228 43zm-9.918 0c-3.154-6.381-6.439-11.307-12.16-19.164a6.68 6.68 0 0 0-5.531-3.146h-.271c-6.359.277-14.2 9.352-17.662 15.029-.875 1.4-1.68 2.869-2.531 4.4-.523.939-1.059 1.9-1.625 2.881h-1.25a210.9 210.9 0 0 0 1.922-3.395c.871-1.551 1.674-3.018 2.568-4.461 2.572-4.211 10.924-15.219 18.531-15.537a7.732 7.732 0 0 1 6.719 3.572c5.689 7.771 9.141 12.924 12.492 19.82zm-51.3 0c.059-.074.119-.148.178-.225 2.91-3.7 6.736-10.967 10.818-18.686C38.037 15.946 42.878 6.769 47.558.001h2.631l-.158.221c-4.826 6.713-9.926 16.365-14.408 24.865-3.746 7.119-7.311 13.863-10.2 17.91zm-6.18 0c8.551-11.717 11.373-18.213 16.814-30.7a97.413 97.413 0 0 0 4-12.293h1.133a99.23 99.23 0 0 1-4.131 12.736c-5.357 12.32-8.219 18.867-16.465 30.26zm-6.645 0a126.33 126.33 0 0 0 20.234-43h2.242a136.806 136.806 0 0 1-6.943 20.318 133.216 133.216 0 0 1-12.887 22.678zm-4.521 0c5.471-9.219 13-23.574 16.719-31.586A76.07 76.07 0 0 0 25.625.002h1.1a78.7 78.7 0 0 1-3.645 11.867c-3.654 7.873-10.979 21.85-16.441 31.129zm-5.385 0c4.846-7.26 9.723-16.172 11.645-19.885 1.551-3.023 7.59-15.641 7.648-15.77A76.514 76.514 0 0 0 21.618.001h2.23a82.955 82.955 0 0 1-2.553 8.176c-.273.6-6.141 12.871-7.713 15.916-.08.141-5.266 10.17-10.971 18.9zm424.561-11.379c-9.078-3.531-52.328 2.229-73.113 4.992-2.426.318-4.572.615-6.418.852-15.367 2-19.744-2.172-30.35-12.244-2.68-2.531-5.678-5.377-9.375-8.672A175.026 175.026 0 0 1 289.201.002h2.824a168.5 168.5 0 0 0 14.709 14.953c3.721 3.313 6.736 6.182 9.416 8.713 10.623 10.115 14.219 13.539 28.563 11.67 1.852-.26 4.018-.531 6.418-.852 17.283-2.295 45.953-6.121 62.764-6.121 5.146 0 9.18.361 11.434 1.23 12.285 4.744 48.609 15.07 68.861 6.121 1.828-.8 3.8-1.615 5.867-2.484 13.9-5.775 32.189-13.375 45.584-33.23h2.676c-13.748 21.242-32.918 29.209-47.414 35.23-2.057.846-4.01 1.656-5.818 2.461-6.205 2.744-13.605 3.785-21.23 3.785-23.386-.001-48.956-9.738-49.294-9.861z" fill="#fd0"/></g></svg>