<svg xmlns="http://www.w3.org/2000/svg" width="540.096" height="44.002"><g data-name="Group 642"><path data-name="Rectangle 141" fill="#803182" d="M16.631 15.502h455v28h-455z"/><path data-name="Intersection 4" d="M522.931 43.5a3.3 3.3 0 0 0-.131-.547 1.018 1.018 0 0 0-.215-.4c-1.283-1.193-2.571-2.369-3.861-3.553-1.147-1.057-2.3-2.094-3.424-3.186-.762-.733-1.436-1.6-2.215-2.305a23.626 23.626 0 0 1-2.819-2.311 5.49 5.49 0 0 0-4.932-2.389c-2.139.156-4.294.072-6.439.119-.535.009-1.07.122-1.842.214a22.049 22.049 0 0 0 1.407 1.813c1.03 1.066 2.124 2.03 3.14 3.11 1.818 1.914 3.551 3.953 5.393 5.833 1.211 1.234 2.461 2.415 3.706 3.6h-2.865c-.631-.785-1.209-1.642-1.895-2.343-1.888-1.955-3.873-3.771-5.746-5.751a48.926 48.926 0 0 1-3.481-4.228 5.041 5.041 0 0 0-4.965-2.305 32.958 32.958 0 0 1-4.475.029h-3.161c-.105.165-.22.333-.327.5.327.649.626 1.323 1.006 1.917a15.916 15.916 0 0 0 1.154 1.416c1.732 2.175 3.429 4.4 5.216 6.516 1.149 1.358 2.229 2.8 3.3 4.251h-2.731a444.23 444.23 0 0 1-3.637-4.529c-1.926-2.436-3.711-5.056-5.727-7.376a17.7 17.7 0 0 0-3.477-2.566.29.29 0 0 0-.275-.009 2.905 2.905 0 0 1-2.253.159 3.971 3.971 0 0 0-1.4-.139c-8.881 1.045-17.772.906-26.654.759-5.218-.075-10.427-.159-15.634 0-6.282-1.158-12.58-1.019-18.876-.88-3.037.064-6.069.13-9.1.055-6.535-.177-13.075-.165-19.612-.148-2.8.009-5.606.009-8.4.009-.755-.009-1.512-.009-2.26-.009-1.259 0-2.514 0-3.766-.009a7.945 7.945 0 0 1-1.214-.185v-.573a9.469 9.469 0 0 1 1.238-.159q48.962-.013 97.922-.017c2.987 0 5.978.009 8.965-.029a10.038 10.038 0 0 0 1.773-.371c-1.978-2.6-3.751-5.007-5.629-7.3a1.367 1.367 0 0 0-1.541.084c-.834 1.619-1.481 3.371-2.232 5.2-.421.026-.908.055-1.6.1.5-1.268.872-2.325 1.307-3.342a35.478 35.478 0 0 0 1.527-3.409 3.559 3.559 0 0 0-.52-2.516c-.832-1.851-2.184-2.954-3.23-4.471a3.709 3.709 0 0 0-3.195-2.01q-43.991.043-87.975-.035a9.824 9.824 0 0 1-1.293-.151c-.021-.182-.045-.379-.06-.573a5.187 5.187 0 0 1 1.391-.405c3.075 0 6.153.093 9.233.093q38.106.026 76.207.035h1.711c.977-1.61-.205-2.369-.765-3.093-1.4-1.813-2.972-3.438-4.43-5.19h2.06q.817 1.09 1.644 2.166c1.491 1.94 3.1 3.756 4.693 5.589a1.269 1.269 0 0 0 .87.446c2.086.035 4.179.017 6.263.017l.342-.446a18.759 18.759 0 0 0-1.348-2.554c-.514-.675-1.293-1.037-1.857-1.654-.535-.585-.886-1.416-1.436-1.981A139.189 139.189 0 0 0 467.894.5h1.732c.863.892 1.735 1.767 2.59 2.667.786.822 1.579 1.636 2.413 2.4a14.609 14.609 0 0 0 1.374 1.045c1.171-2.276 2.239-4.133 3.118-6.108h1.367a5.3 5.3 0 0 0-.227 2.577c1.522-.342 2.609.918 3.787 1.659a46.057 46.057 0 0 1 4.052 3.168 17.081 17.081 0 0 1 2.254 1.83c.609.683.915 1.8 1.565 2.386 1.888 1.743 3.926 3.232 5.8 4.964 2.153 1.978 4.186 4.156 6.318 6.174.65.611 1.725.767 2.131 1.509 1.03 1.906 2.54 2.01 4.115 2.158s3.14.35 4.714.489a10.071 10.071 0 0 0 1.673-.026 36.381 36.381 0 0 1 5.1-.51c1 .046 1.986.8 2.977 1.231l-.076.556a12.289 12.289 0 0 1-1.527.174c-1.575 0-3.144-.009-4.712-.009a591.37 591.37 0 0 0-5.651 0 17.069 17.069 0 0 0-2.2.345c2.351 2.082 4.315 3.805 6.263 5.552q1.742 1.568 3.45 3.174c.972.909 1.888 1.917 2.9 2.743.313.258 1.209.223 1.283.017a71.588 71.588 0 0 0 2.019-5.954c.495-1.764.619-3.71 1.274-5.358a21.267 21.267 0 0 0 1.665-5.537 21.088 21.088 0 0 1 1.133-3.915c.473-1.434 1.085-2.8 1.493-4.257.5-1.767.772-3.629 1.276-5.387.817-2.844 1.756-5.621 2.614-8.442.131-.432.246-.872.356-1.315h3.089c-.516 1.575-1 3.168-1.491 4.755-.428 1.361-.887 2.714-1.259 4.1-.392 1.462-.65 2.98-1.039 4.442-.237.889-.643 1.714-.956 2.575-.55 1.471-1.147 2.913-1.62 4.422-.71 2.259-1.3 4.576-2 6.852-.841 2.751-1.735 5.471-2.583 8.21-.413 1.315-.511 2.945-1.231 3.907-.951 1.274-.738 2.505-.65 3.733zm-47.133-31.633a13.459 13.459 0 0 1-.7 1.425c-.49 1.141-.949 2.305-1.551 3.788a13.753 13.753 0 0 0 1.145 1.691 20.957 20.957 0 0 1 1.742 1.564c1.1 1.509 1.986 3.27 3.164 4.668 1.474 1.767 3.216 3.406 5.467 2.618 1.833-.646 3.56-1.138 5.41-.182.213.11.824-.223.863-.446a2.077 2.077 0 0 0-.215-1.436c-1.962-2.016-4.026-3.886-5.957-5.934-2.566-2.7-5.042-5.534-7.546-8.32a1.055 1.055 0 0 0-.774-.388 1.176 1.176 0 0 0-1.048.952zm3.742-2.027a9.22 9.22 0 0 1-.129.463 15.507 15.507 0 0 0 1.314 1.88c1.728 1.822 3.505 3.574 5.254 5.369.786.805 1.541 1.654 2.322 2.459 1.68 1.732 3.376 3.426 5.042 5.166 1.075 1.129 2.17 2.317 3.632 2.409 2.141.127 4.294.035 6.442.009a15.192 15.192 0 0 0 1.565-.194l.206-.576c-.922-.886-1.847-1.767-2.757-2.664-1.078-1.066-2.107-2.213-3.223-3.215-1.825-1.628-3.742-3.107-5.543-4.784-1.68-1.555-3.23-3.3-4.882-4.923-.557-.547-1.214-1.3-1.849-1.335a53.289 53.289 0 0 0-3.391-.093c-1.334 0-2.668.029-4.003.029zm-11 .139l-.139.463c1.383 1.749 2.765 3.5 4.124 5.222.7-1.546 1.3-2.676 1.725-3.9a3.368 3.368 0 0 0-.139-1.7 74.161 74.161 0 0 0-4.086-.087zm10.958-6.5a14.064 14.064 0 0 1-1.183 2.832c-1.192 1.454-.153 1.471.588 1.509 1.6.093 3.216.026 5.02.026 0-.22.167-.915-.024-1.109-.886-.935-1.878-1.706-2.812-2.572a9.4 9.4 0 0 1-.832-1.054c-.254.12-.646.14-.754.369zM354.034 43.5c.237-1.381.468-2.763.753-4.13.4-1.908.886-3.805 1.391-5.685.4-1.518.953-2.989 1.283-4.535.421-1.9.626-3.869 1.023-5.786a21.134 21.134 0 0 1 .949-2.89 39.855 39.855 0 0 0 1.923-7.645c.428-2.719 1.651-5.259 2.416-7.915A26.319 26.319 0 0 0 364.729.5h1.489c-.4 1.335-.81 2.667-1.211 4-.06.214-.091.434-.129.649-.337 2.036-.612 4.083-1.023 6.093a29.733 29.733 0 0 1-1.063 3.527 31.76 31.76 0 0 0-1.756 7.756c-.115 1.555-.949 3.018-1.367 4.555a32.244 32.244 0 0 0-1.262 5.389 32.507 32.507 0 0 1-1.718 7.895c-.177.5-.108 1.129-.253 1.657q-.2.743-.409 1.483zm-25.48 0c.342-1.824 1.57-3.142 2.134-4.833.325-.982.724-1.937 1.113-2.882 1.212-2.885 2.38-5.785 3.653-8.624.657-1.465 1.572-2.751 2.26-4.205.521-1.074.8-2.305 1.276-3.417.741-1.726 1.575-3.4 2.346-5.117.456-1.017.863-2.074 1.3-3.1.327-.785.671-1.564 1.013-2.343.91-2.12 1.811-4.248 2.736-6.365.292-.666.664-1.277.963-1.946l.074-.165h1.618l-.287.582c-.129.278-.389.539-.4.817-.084 2.4-1.711 3.857-2.385 5.893a29.318 29.318 0 0 1-1.374 3.362c-.879 1.888-1.864 3.692-2.71 5.6-.459 1.019-.657 2.192-1.07 3.229-.7 1.72-1.474 3.38-2.2 5.065-.5 1.129-.987 2.259-1.453 3.406-.772 1.9-1.52 3.8-2.284 5.691-1.161 2.908-2.306 5.815-3.5 8.7-.093.22-.189.437-.287.657zm-26.69 0c.155-.284.313-.562.475-.834 1.328-2.213 2.889-4.214 4.239-6.409 1.4-2.268 2.528-4.784 4.017-6.95a74.15 74.15 0 0 0 4.645-7.118 54.829 54.829 0 0 1 3.438-5.2c.846-1.251 1.73-2.473 2.595-3.713 1.228-1.769 2.514-3.49 3.675-5.323a55.911 55.911 0 0 0 4.194-7.195c.036-.084.072-.171.105-.258h2.657c-.086.434-.155.869-.205 1.295-.229 1.891-.093 3.84-.17 5.757a3.093 3.093 0 0 1-.442 1.066 3.643 3.643 0 0 1-.509-1.138c-.062-1.344-.024-2.7-.024-4.164-.542-.067-.984-.122-1.137-.139-1.231 1.94-2.33 3.646-3.407 5.366-1.536 2.465-3.018 4.99-4.614 7.4-1.957 2.96-4.038 5.8-6.009 8.746-.772 1.158-1.369 2.482-2.086 3.7q-1.96 3.306-3.964 6.571c-1.094 1.775-2.26 3.481-3.314 5.294-.618 1.046-1.189 2.151-1.769 3.246zm-13.02 0c-.21-.846-.413-1.694-.688-2.5a34.652 34.652 0 0 0-1.627-3.73c-.428-.906-.748-.7-1.321.038-1.632 2.108-3.309 4.156-5 6.195h-2.921a8.314 8.314 0 0 1 2.736-2.882c1.825-.906 2.124-3.325 3.885-4.231 1.8-.927 1.849-3.22.91-5.3a65.254 65.254 0 0 1-2.182-6.342c-.375-1.129-.681-2.3-1.085-3.417-.048-.139-.6-.185-.757-.035-.49.5-.908 1.109-1.489 1.842a12.2 12.2 0 0 1-.444-1.639c-.313-2.812-.473-5.653-.918-8.433A49.827 49.827 0 0 0 276.47 7.6c-.418-1.509-.769-3.047-1.259-4.515-.3-.889-.7-1.726-1.078-2.583H279a65.18 65.18 0 0 0 .886 8.885 7.014 7.014 0 0 0 .282 1.3c.48 1.2 1.078 2.343 1.505 3.574.456 1.323.734 2.74 1.161 4.075.495 1.57 1.1 3.1 1.615 4.663.475 1.434.8 2.954 1.345 4.332a39.726 39.726 0 0 0 1.919 3.7c1.047-.046 1.047-.046 1.436-1.379.06-.206.067-.51.191-.6a9.957 9.957 0 0 0 3.147-3.409 15.631 15.631 0 0 1 2.7-3.212c1.135-1.251 2.366-2.4 3.426-3.73a17.294 17.294 0 0 1 2.322-2.87c.779-.646 1.185-1.961 1.971-2.592 1.756-1.416 2.681-3.86 4.535-5.12 1.2-.814 1.116-2.305 1.092-3.718q-.032-1.95-.057-3.9h1.7v.88a4.223 4.223 0 0 0 .616 2.572c.848.759.382 1.341.222 2.036a28.865 28.865 0 0 0-.741 3.267 28.191 28.191 0 0 0 .014 3.391c.017 1.379-.487 1.969-1.909 1.535V8.875c-.153-.046-.306-.1-.459-.148a40.98 40.98 0 0 1-2.547 4.073c-2.291 2.87-4.7 5.592-7.042 8.4-2.722 3.278-5.393 6.612-8.126 9.878a4.984 4.984 0 0 0-1.15 4.837 33.583 33.583 0 0 0 1.154 3.472c.542 1.379 1.1 2.745 1.658 4.112zm-36.806 0q-.28-1.255-.619-2.5c-.55-1.99-.8-4.109-1.185-6.174L248.7 26.5c-.428-2.343-.793-4.694-1.266-7.011-.466-2.256-1.109-4.46-1.505-6.727-.244-1.422-.015-2.962-.275-4.376-.39-2.149-1.023-4.237-1.558-6.34-.042-.159-.16-.286-.198-.434-.079-.374-.163-.741-.244-1.112h2.449c.37 1.645.777 3.275 1.154 4.915.038.165.1.321.124.481a36.82 36.82 0 0 0 1.135 6.14c.81 2.2.581 4.471.939 6.675a42.025 42.025 0 0 0 1.436 5.059 4.524 4.524 0 0 1 .122.484 46.282 46.282 0 0 0 1.231 6.784c.8 2.386.511 4.831.886 7.2.277 1.749.55 3.527.918 5.259zm41.616-28.393a3.718 3.718 0 0 0-.323-.851c-.456-1.2-.953-2.381-1.367-3.6-.459-1.332-.824-2.714-1.283-4.046-.494-1.427-1.057-2.81-1.578-4.23-.143-.408-.182-.88-.342-1.268a26.776 26.776 0 0 0-.27-.612h1.4c.918 2.375 1.878 4.729 2.829 7.089.275.7.626 1.341.894 2.045a79.963 79.963 0 0 1 1.307 3.733c.306.961.516 1.972.8 3.084a4.435 4.435 0 0 1-.664.058c-.863 0-1.295-.385-1.403-1.402zm10.282-13.785c-.141-.272-.289-.547-.43-.822h1.983a7.577 7.577 0 0 1 .282 1.584c.022.3.3.553.373.851.153.649.253 1.306.375 1.961l-.612.229c-.653-1.266-1.328-2.525-1.971-3.803z" fill="#67c04d" stroke="rgba(0,0,0,0)" stroke-miterlimit="10"/><path data-name="Intersection 5" d="M308.203 43.502a7.382 7.382 0 0 0 1.211-3.135 40.084 40.084 0 0 1 1.061-4.455c.652-1.828 1.6-3.436 2.24-5.271.623-1.809 1.01-3.779 1.559-5.912-2.293-.666-4.307-1.191-6.295-1.828-2.174-.7-4.324-1.6-6.506-2.23-1.062-.314-2.207-.051-3.281-.328-2.807-.711-5.588-1.58-8.379-2.373-.65-.18-1.309-.307-2.027-.48v-1.713a32.8 32.8 0 0 0 3.982.621c2.529.09 4.859 1.266 7.213 2.342a2.2 2.2 0 0 0 .408.189c2.5.516 5 1.01 7.5 1.543 2.014.424 4.016.963 6.029 1.314a13.265 13.265 0 0 0 2.547.031c1.059-2.793 1.9-5.129 2.846-7.381.188-.436.811-.5 1.318-.793a8.92 8.92 0 0 1-1.145 6.961c-.99 1.467-.645 1.834.605 2.725 2.039 1.438 4.162.906 6.242 1.266 2.047.352 4.086.732 6.107 1.258 3.23.838 6.428 1.826 9.646 2.719 1.512.418 3.035.746 4.547 1.129v2.801a34.688 34.688 0 0 1-4.4-.719c-1.8-.531-3.521-1.557-5.322-1.99-2.2-.525-4.441-.016-6.682-1.236-2.1-1.145-4.518-1.2-6.793-1.729a.643.643 0 0 0-.164-.014c-.1 0-.2 0-.256-.068-.926-1.244-2.039-1.176-3.146-1.107-.309.014-.617.037-.914.029a1.446 1.446 0 0 0-1.094.8c-.463.943-.766 2.037-1.164 3.053a46.868 46.868 0 0 0-2.414 6.254 19.489 19.489 0 0 1-1.732 4.609 14.515 14.515 0 0 0-1.057 3.113zm-13.156 0c-1.908-.666-3.791-1.514-5.7-2.215-2.279-.838-4.576-1.557-6.842-2.447a4.011 4.011 0 0 1-1.414-1.393c-.07-.09.352-1.242.514-1.229a9.6 9.6 0 0 1 2.207.637c.168.059.291.391.457.441 1.646.576 3.314 1.1 4.961 1.678 2.156.756 4.307 1.586 6.463 2.313 1.807.613 3.635 1.145 5.449 1.693.537.16 1.074.346 1.609.521zm-113.766 0c-2.557-.379-5.1-.4-7.637-.793a13.635 13.635 0 0 1-3.352-1.564c-.158.8-.32 1.588-.482 2.357h-1.611a7.74 7.74 0 0 0 .033-1.256c-.02-.346-.844-.771-1.324-.855-3.283-.6-6.578-1.115-9.879-1.66.006-1.76.547-2.508 1.867-1.738a8.718 8.718 0 0 0 4.908.914 16.576 16.576 0 0 1 2.428.09 3.1 3.1 0 0 0 1.57-.014c.449-.174 1.1-.621 1.188-1.115.586-3.047 1.031-6.139 1.578-9.582-3.648 0-6.84-.01-10.033 0-1.041.008-2.059-.016-2.154-2.09.121-.113.275-.367.43-.367 2.82-.006 5.645-.006 8.463.061.289 0 .58.381.855.613 1.191 1 2.8-.006 3.117-1.953.34-2.066.6-4.17 1.039-6.189.408-1.873 1.148-3.6 1.508-5.48.508-2.658.727-5.42 1.211-8.086.258-1.447.588-2.869.928-4.291h1.279a98.86 98.86 0 0 1-.5 3.684c-.406 2.631-1.012 5.2-1.539 7.8-.051.254-.16.494-.193.748-.365 2.9-.7 5.816-1.1 8.707-.205 1.438-.572 2.82-.83 4.242a4.737 4.737 0 0 0 .1 1.146 47.723 47.723 0 0 1 7.01.471c5.963 1.268 11.955 1.221 17.953 1.176 3.174-.023 6.338-.045 9.51.129a1.4 1.4 0 0 1 1.064.6 71.308 71.308 0 0 1-9.635.4c-.752 0-1.512-.008-2.264 0-4.113.021-8.232 0-12.35 0h-12.35c-.367 2.906-.746 5.682-1.055 8.475-.162 1.422.186 2.2 1.395 2.172a57.625 57.625 0 0 1 6.744.2c4.088.383 8.242.414 12.229 1.559 2.721.787 5.424.322 8.055 1.018a21.14 21.14 0 0 0 2.3.471zm-28.1 0c.34-2.773.711-5.545.912-8.338a58.117 58.117 0 0 1 1.732-11.043 17.436 17.436 0 0 0 .244-2.432 8.461 8.461 0 0 1-1.3-.029c-1.074-.084-2.09-.174-3.006.949a.209.209 0 0 1-.127.074c-1.971.576-3.932 1.154-5.908 1.709a23.423 23.423 0 0 0-5.025 1.5c-.752.4-1.436 2.014-1.621 3.227a37.944 37.944 0 0 0-.072 5.637c.568.129 1.146.254 2.041.457-.494.756-.812 1.227-1.121 1.723-.367.582-1.035 1.182-1.035 1.766a21.635 21.635 0 0 0 .455 4.8h-2.859c.2-1.092.4-2.186.57-3.283a7.31 7.31 0 0 0-.16-1.979c-1.2.254-2.227.48-3.252.689-2.135.418-4.277.77-6.4 1.326-.316.088-.652 1.105-.734 1.758-.062.5-.117.992-.172 1.488h-2.432v-.291c.01-1.092-.275-1.67-1.2-1.66-1.535.025-1.852.176-1.912 1.951h-1.437c-.553-.748-1.395-.785-2.363 0h-6.42a5.6 5.6 0 0 0 .646-.314c2.027-1.145 4.389-1.1 6.59-1.674.424-.113 1.139-.668 1.131-1.014a76.961 76.961 0 0 0-.354-6.48 21.15 21.15 0 0 0-.623-2.8 17.887 17.887 0 0 1-1.82.861 42.248 42.248 0 0 1-4.2 1.373c-2.3.553-4.621.992-6.932 1.436a3.639 3.639 0 0 1-.771.021 2.641 2.641 0 0 0-.939.076 4.409 4.409 0 0 0-1.416.957c-1.512 1.326-.359 3.48-.8 4.9 0 .922.006 1.588 0 2.254v.41h-1.885a6.133 6.133 0 0 1-.008-2.027v-2.928c0-.2 0-.4-.012-.6-.07-1.541-.713-2.049-1.7-1.578a33.322 33.322 0 0 1-5.645 2.395c-2.627.682-5.3.914-7.955 1.387-1.15.207-1.924 1.041-1.912 2.82 0 .178.006.355.01.531h-1.732c-.25-1.863-.908-2.354-2.3-1.705a29.733 29.733 0 0 1-3.328 1.16 2.709 2.709 0 0 0-.926.365 3.053 3.053 0 0 1-.229.18h-5.111a6.914 6.914 0 0 1 2.418-1.676c2.4-.7 4.818-1.205 7.252-1.686 1.467-.285 2.17-1.189 1.982-3.232-.213-2.359-.572-4.687-.883-7.1-.561-.035-1.109-.072-1.66-.109.508-1.16 1.01-2.312 1.422-3.26-.2-1.182-.443-2.186-.52-3.219-.387-5.232-.727-10.473-1.082-15.711a3.227 3.227 0 0 0-.045-.4c-.379-1.557-.791-3.008-2.33-2.6a40.322 40.322 0 0 1-4.889 1.117 37.6 37.6 0 0 1-5.156.262c-1.285 0-1.912.77-1.748 2.537.242 2.68.668 5.338.828 8.025.406 6.871-.045 13.8.984 20.646.313 2.092.26 4.236.363 6.4h-3.762c-.232-.518-.469-1.025-.7-1.525a4.3 4.3 0 0 1-.129-4.049c.645 1.172 1.268 2.291 1.887 3.406.174-.055.34-.115.521-.166-.115-1.984-.193-3.969-.354-5.945-.07-.816-.432-1.586-.457-2.395-.1-3-.021-6.02-.182-9.02-.275-5.121-.67-10.234-1.049-15.346-.1-1.393-1.184-2.389-2.123-2.264-2.748.383-5.553.332-8.23 1.117-4.273 1.242-8.662.373-12.852 1.459-3.373.877-6.764.309-10.039 1.244-4.184 1.189-8.385 1.137-12.586 1.092a63.758 63.758 0 0 0-8.127.24c-1.764.2-3.5.7-5.26 1.02a3.953 3.953 0 0 1-1.08-.115l-.2-.576a8.1 8.1 0 0 1 2.041-1.631 4.781 4.781 0 0 1 1.762-.172c.314.006.639.023.953 0 5.553-.428 11.125-1 16.629-1.842 4.4-.674 8.811-.426 13.186-1.131 3.732-.6 7.555-.285 11.24-1.168a60.141 60.141 0 0 1 13.244-1.266c.309-.006.883-.973.877-1.475q-.023-1.245-.053-2.494h2.627q0 .665.012 1.326c.006.443.09.877.16 1.521a30.763 30.763 0 0 1 4.324-.113c2.969.068 5.939.127 8.914-1.535 0-.355.016-.768.02-1.2h1.289a1.926 1.926 0 0 0 2.287 1.4c3.508-.283 7.01-.727 10.518-1.062C92.12.693 93.651.768 95.17.565a1.814 1.814 0 0 0 .313-.068h18.148c-3.17.176-6.355.162-9.523.414a3.829 3.829 0 0 0-3.039 1.512 12.606 12.606 0 0 0-.83 5.061c-.1 4.064.064 8.146-.043 12.209-.053 1.939.592 2.365 1.689 2.209 1.926-.283 3.816-.246 5.76-1.182 2.395-1.154 5.078-1.162 7.633-1.641 1.4-.262 2.008-1.182 1.963-3.166-.031-1.266-.143-2.531-.154-3.795a14.7 14.7 0 0 1 .205-1.887l.51.029c.09 1.475.2 2.949.256 4.43.09 2.367.7 3.273 2.406 3.027.93-.143 1.809-.99 2.742-1.115 1.146-.16 1.578-.773 1.564-2.367-.027-4.576.025-9.16.02-13.738h2.537c0 1.34-.066 2.684-.137 4.023-.18 3.436-.4 6.879-.559 10.313-.014.258.23.541.391.877 2.389-.771 4.748-1.535 7.33-2.365-.16-2.328-.328-4.656-.5-7.09h1.273a20.342 20.342 0 0 0 .059 3.834 3.479 3.479 0 0 0 1.377 2.268c2.2.8 4.145-1.713 4.3-4.9.113-2.3-.232-4.678.15-6.957h1.67a7 7 0 0 1-.219 2.352c-1.234 2.584-.514 5.375-.83 8.646 1.75-.352 3.148-.59 4.539-.912 1.156-.271 2.3-.687 3.467-.928.227-.045.51.426.766.656-.186.322-.334.861-.559.936-2.369.855-4.738 1.678-7.123 2.4-1.172.359-1.7 1.43-1.83 2.9a53.518 53.518 0 0 0-.205 5.189c.006.477.412 1.332.656 1.348a6.522 6.522 0 0 0 2.986-.293c2.947-1.279 5.9-2.41 9.016-2.357.289 0 .662.133.844-.068.945-1.039 2.418-1.984 2.639-3.309.623-3.811.674-7.8 1.086-11.7.172-1.621.377-3.256.656-4.859h1.717l-.32 2.2c-.006.068-.023.133-.033.2-.391 3.453-.752 6.918-1.2 10.361-.187 1.385-.547 2.734-.844 4.184 1.713 1 3.348.391 5.014-.217 1.455-.531 2.934-1.062 4.525-.523-.549.846-.936 1.992-1.455 2.135-2.1.553-4.066 2.154-6.32 1.586-1.371-.354-1.8.48-1.994 2.449-.277 2.836-1 5.6-1.531 8.391-.039.193-.053.391-.078.592-.393 3.3-.443 6.781-1.26 9.865a15.843 15.843 0 0 0-.365 1.781zm-31.514-13.637a3.277 3.277 0 0 0-1.635 2.139 20.341 20.341 0 0 0 .008 5.348c.127 1 .707 2.416 1.293 2.656a2.143 2.143 0 0 0 2.334-.922 29.225 29.225 0 0 0 1.359-5.135c-.129-.053-.252-.111-.381-.164-.012-.336-.031-.666-.043-1-.078-2.242-.506-3.285-1.588-3.285a3.446 3.446 0 0 0-1.346.363zm13.25-2.9c-1 .3-1.963.816-2.961 1.146-1.764.576-3.537 1.076-5.314 1.609v9.672a23.123 23.123 0 0 1 2.928-1.582c1.918-.65 3.869-1.129 5.8-1.721 1.463-.455 1.965-1.639 1.564-3.346a37.542 37.542 0 0 1-.818-4.365c-.1-.945-.367-1.461-.9-1.461a1.138 1.138 0 0 0-.298.05zm-37.762-1.369a9.47 9.47 0 0 0-4.486 1.068c-1.582 1-3.461 1.057-5.211 1.5-2.215.555-4.436 1.088-6.648 1.641-.16.037-.309.217-.455.328l.43.055.578 9.086c3-.687 5.914-1.189 8.771-2.082 2.338-.725 4.557-2.229 7-2.207 1.08.016 1.313-.74 1.313-1.947-.006-1.932-.109-3.869-.037-5.793.045-1.262-.281-1.662-.992-1.662a2.071 2.071 0 0 0-.262.019zm16.029-4.117c-1.48.465-2.979.359-4.5 1.166-2.117 1.125-4.518 1.2-6.777 1.844a1.775 1.775 0 0 0-.937 1.264c-.09 2.582-.047 5.166-.047 7.98a6.546 6.546 0 0 0 1.154-.01c2.365-.537 4.74-1.039 7.09-1.684 2.594-.7 5.154-1.617 7.748-2.281.914-.234 1.3-.787 1.152-1.955-.3-2.447-.684-4.881-1.105-7.883-1.349.57-2.546 1.17-3.776 1.561zm6.637-1.77c-1.2 1.125-.74 2.711-.734 4.127.025 4.871.051 4.834 3.52 4.529 1.32-.111 1.789-1.236 1.955-2.77a22.925 22.925 0 0 0 .02-2.592h-.037c0-.8.043-1.609-.02-2.4a2.76 2.76 0 0 0-.406-1.361 1.772 1.772 0 0 0-1.3-.377 5.421 5.421 0 0 0-2.997.846zM92.637 2.201c-1.152.211-2.271.793-3.424.93-3.6.434-7.207.732-11.275 1.137.439 2.387.916 4.23 1.1 6.123q.686 7.119 1.113 14.277c.09 1.494.18 2.73 1.352 3.256a33.548 33.548 0 0 1 5.1-2.066c2.871-.668 5.785-.99 8.676-1.445.289-.045.58-.037.855-.1 1.436-.328 2.131-1.453 1.994-3.449-.256-3.721-.609-7.436-.859-11.164-.105-1.654-.021-3.338-.092-5a3.714 3.714 0 0 0-.43-1.475 2.136 2.136 0 0 0-1.982-1.436 13.017 13.017 0 0 0-2.126.413zm34.35 15.7a2.832 2.832 0 0 0-.379 1.564c-.045 1.668 0 3.338-.014 5.006-.012 2.637-.006 2.764 1.926 2.457 1.363-.217 2.678-.988 4.035-1.227 2.053-.369 2.672-1.2 2.662-4.09-.006-1.594 0-3.187 0-4.871a8.074 8.074 0 0 0-2.646-.385c-2.174.002-4.583.596-5.583 1.547zm9.738-1.641c.18 2.537.354 4.408.436 6.289.066 1.475.549 1.969 1.48 1.676.367-3.391.717-6.654 1.127-10.42-1.437 1.162-2.437 1.97-3.037 2.457zM50.35 43.5l-.475-1.541c-.418-1.393-.791-2.807-1.209-4.193-.246-.822-.541-1.615-.863-2.582 1.436-.471 1.9-.037 2.117 1.654a27.065 27.065 0 0 0 1.287 4.568c.221.715.479 1.4.727 2.094zm-12.773 0c-.656-2.582-1.182-5.225-1.846-7.807-.373-1.469-.92-2.838-1.371-4.268-.275-.9-.5-1.818-.791-2.881 1.422-.414 1.982-.092 2.24 1.729a28.888 28.888 0 0 0 1.531 4.717c.334 1.033.676 2.074.934 3.143.426 1.777.742 3.607 1.207 5.367zm-18.139 0a49.4 49.4 0 0 0-1.016-8.055c-.748-2.867-.846-5.838-1.533-8.652a4.552 4.552 0 0 1 .039-.959h1.789c.264 2.6.451 5.293.836 7.928.479 3.266 1.129 6.49 1.67 9.738zm46.719-10.248a7.756 7.756 0 0 1 .213-1.443 1.207 1.207 0 0 1 .645-.719 37.469 37.469 0 0 1 5.314-1.324 36.43 36.43 0 0 1 5.059-.023c-.32.385-.619.977-.979 1.063-2.678.631-5.369 1.133-8.053 1.729-.4.092-.766.539-1.17.689a1.2 1.2 0 0 1-.408.061c-.202 0-.413-.031-.62-.031zm143.9-2.67c1.332-1.236 10.162-1.236 11.416 0zM77.43 29.697a.392.392 0 0 0 .049 0l-.018.043zm-.039.045a.28.28 0 0 1 .039-.045l.031.045z" fill="#67c04d" stroke="rgba(0,0,0,0)" stroke-miterlimit="10"/></g></svg>