<svg xmlns="http://www.w3.org/2000/svg" width="841.889" height="595.281"><path d="M14.852 374.913l26.192 26.192 71.434-16.668-79.53-79.052zM235.343 99.178c-2.857-2.857-4.763-6.19-5.715-10L41.996 276.335c-2.381 2.381-3.81 5.238-3.81 8.571 0 3.334 1.429 6.191 3.81 8.572l81.435 81.435c4.762 4.763 12.857 4.763 17.62 0l187.155-187.156c-3.81-.952-7.143-3.334-10-5.715l-82.863-82.864zm122.866 57.148c-3.334-.953-6.668-2.857-9.525-5.715l-82.862-83.339c-2.381-2.382-4.286-5.239-5.238-8.097l-15.239 15.239c-3.811 3.811-3.811 10.478 0 14.287l82.862 83.339c3.811 3.811 10.478 3.811 14.287 0l15.715-15.714zM272.965 50.128c0 2.857.952 5.238 2.857 7.144l82.862 82.863c3.81 3.81 10.478 3.81 14.287 0l37.622-37.622c3.81-3.81 3.81-10.477 0-14.287v-.476L329.159 6.792l-1.429-1.429c-1.905-1.905-4.763-2.857-7.144-2.857s-5.238.952-7.144 2.857l-37.621 37.621c-1.904 1.905-2.856 4.286-2.856 7.144zM31.043 404.915l-20.002-20.478-6.19 22.383c-.477 1.904.477 2.857.952 3.333 0 0 .952.953 2.381.477l22.859-5.715z"/></svg>