<svg xmlns="http://www.w3.org/2000/svg" width="208" height="61" viewBox="0 0 208 60.988">
  <g id="Group_22" data-name="Group 22" transform="translate(-35.729 -34.01)">
    <g id="Group_20" data-name="Group 20" transform="translate(109.771 47.241)">
      <g id="Group_19" data-name="Group 19" transform="translate(0 0)">
        <path id="Path_1" data-name="Path 1" d="M219.422,73.136c0,4.256-2.514,6.038-5.563,6.038s-5.6-1.781-5.6-6.038V65.217h2.752v7.721c0,2.257.95,3.623,2.851,3.623s2.811-1.366,2.811-3.623V65.217h2.752Z" transform="translate(-208.058 -65.019)" fill="#192250"/>
        <path id="Path_2" data-name="Path 2" d="M243.616,73.234h-1.148v5.84h-2.652V65.217h2.652v5.444h1.108l3.5-5.444h3.029l-4.316,6.73,4.91,7.127h-3.049Z" transform="translate(-226.037 -65.019)" fill="#192250"/>
        <path id="Path_3" data-name="Path 3" d="M288.325,79.074l-2.95-5.088h-1.643v5.088h-2.514V65.217h4.89a4.1,4.1,0,0,1,4.3,4.256,4.406,4.406,0,0,1-2.494,4.038l3.345,5.563Zm-4.593-7.542h2.178a1.879,1.879,0,0,0,1.88-2.019,1.731,1.731,0,0,0-1.88-1.821h-2.178Z" transform="translate(-249.624 -65.019)" fill="#192250"/>
        <path id="Path_4" data-name="Path 4" d="M315.182,79.988h-7.226a2.506,2.506,0,0,0,2.594,2.059,2.339,2.339,0,0,0,1.92-.832h2.495a4.713,4.713,0,0,1-4.494,3.069,4.967,4.967,0,0,1-5.009-5.127,4.815,4.815,0,0,1,4.93-4.969C312.926,74.188,315.5,75.95,315.182,79.988Zm-7.067-2h4.455a2.008,2.008,0,0,0-2.1-1.643A2.449,2.449,0,0,0,308.115,77.989Z" transform="translate(-263.436 -70.13)" fill="#192250"/>
        <path id="Path_5" data-name="Path 5" d="M335.264,76.286c-.832,0-1.188.416-1.188.832,0,.673.891.871,1.485.99,1.762.376,3.544.911,3.544,3.009,0,2.039-1.683,3.167-3.722,3.167-2.277,0-4.039-1.386-4.157-3.484h2.435a1.494,1.494,0,0,0,1.663,1.366c1.01,0,1.247-.534,1.247-.951,0-.732-.693-.95-1.366-1.108-1.168-.257-3.683-.732-3.683-2.989,0-1.94,1.861-2.93,3.782-2.93,2.217,0,3.682,1.346,3.8,3.009H336.67A1.269,1.269,0,0,0,335.264,76.286Z" transform="translate(-278.113 -70.13)" fill="#192250"/>
        <path id="Path_6" data-name="Path 6" d="M362.107,79.988h-7.226a2.506,2.506,0,0,0,2.593,2.059,2.34,2.34,0,0,0,1.92-.832h2.495a4.713,4.713,0,0,1-4.494,3.069,4.967,4.967,0,0,1-5.009-5.127,4.815,4.815,0,0,1,4.93-4.969C359.851,74.188,362.424,75.95,362.107,79.988Zm-7.067-2h4.455a2.008,2.008,0,0,0-2.1-1.643A2.449,2.449,0,0,0,355.04,77.989Z" transform="translate(-290.169 -70.13)" fill="#192250"/>
        <path id="Path_7" data-name="Path 7" d="M387.691,82.285v1.9H387.1a2.218,2.218,0,0,1-2.3-1.267,3.62,3.62,0,0,1-3.127,1.366c-2.237,0-3.663-1.148-3.663-2.93,0-3.088,4.217-3.365,6.117-3.465-.04-1.148-.673-1.564-1.683-1.564-1.406,0-1.5.852-1.5.852h-2.475c.178-1.762,1.623-2.989,4.038-2.989,2.355,0,4.019,1.168,4.019,4.038v2.633C386.523,82.008,386.938,82.285,387.691,82.285Zm-3.6-2.257v-.2c-1.8.2-3.583.416-3.583,1.445C380.5,82.78,383.929,82.661,384.088,80.028Z" transform="translate(-304.766 -70.13)" fill="#192250"/>
        <path id="Path_8" data-name="Path 8" d="M410.247,74.188v2.534a4.812,4.812,0,0,0-.871-.079,2.535,2.535,0,0,0-2.831,2.534v5.008h-2.633v-9.9h2.019l.356,1.089h.317a4.176,4.176,0,0,1,3.028-1.188Z" transform="translate(-319.522 -70.13)" fill="#192250"/>
        <path id="Path_9" data-name="Path 9" d="M425.021,84.284a4.944,4.944,0,0,1-5.009-5.028,5.023,5.023,0,0,1,5.108-5.068,4.742,4.742,0,0,1,4.731,3.722h-2.692a2.3,2.3,0,0,0-2.1-1.327,2.658,2.658,0,0,0,0,5.306A2.284,2.284,0,0,0,427.08,80.7h2.712A4.809,4.809,0,0,1,425.021,84.284Z" transform="translate(-328.694 -70.13)" fill="#192250"/>
        <path id="Path_10" data-name="Path 10" d="M456.039,73.447v5.365h-2.653V74.041c0-.97.158-2.93-1.623-2.93-.871,0-2.554.455-2.554,3.049v4.652h-2.652V64.757h2.514v5.186h.336a3.842,3.842,0,0,1,2.851-1.128C454.812,68.815,456.039,70.715,456.039,73.447Z" transform="translate(-343.816 -64.757)" fill="#192250"/>
        <path id="Path_11" data-name="Path 11" d="M217.476,129.41v1.9h-.593a2.217,2.217,0,0,1-2.3-1.267,3.622,3.622,0,0,1-3.128,1.366c-2.237,0-3.662-1.148-3.662-2.93,0-3.088,4.217-3.365,6.117-3.464-.04-1.148-.673-1.563-1.683-1.563-1.405,0-1.5.851-1.5.851h-2.475c.178-1.762,1.624-2.989,4.039-2.989,2.355,0,4.019,1.168,4.019,4.038v2.633C216.309,129.134,216.724,129.41,217.476,129.41Zm-3.6-2.257v-.2c-1.8.2-3.583.416-3.583,1.445C210.29,129.906,213.715,129.787,213.874,127.154Z" transform="translate(-207.796 -96.977)" fill="#192250"/>
        <path id="Path_12" data-name="Path 12" d="M243.2,125.946v5.365h-2.633V126.54c0-.337.237-2.831-1.664-2.93-.93-.059-2.593.455-2.593,3.049v4.652H233.7v-9.9h2.019l.336,1.208h.337a3.789,3.789,0,0,1,3.009-1.306C241.952,121.314,243.2,123.214,243.2,125.946Z" transform="translate(-222.552 -96.977)" fill="#192250"/>
        <path id="Path_13" data-name="Path 13" d="M269.375,111.882v14.056h-1.94l-.277-.95h-.3a3.25,3.25,0,0,1-2.514,1.05,5.069,5.069,0,0,1,0-10.1,3.3,3.3,0,0,1,2.553,1.069v-5.128Zm-2.475,9.107c0-1.643-.891-2.613-2.177-2.613a2.621,2.621,0,0,0,0,5.227C266.01,123.6,266.9,122.632,266.9,120.989Z" transform="translate(-237.385 -91.604)" fill="#192250"/>
        <path id="Path_14" data-name="Path 14" d="M302.831,126.2H300.08V112.342h2.751Z" transform="translate(-260.37 -91.866)" fill="#192250"/>
        <path id="Path_15" data-name="Path 15" d="M321.68,125.946v5.365h-2.633V126.54c0-.337.238-2.831-1.663-2.93-.93-.059-2.593.455-2.593,3.049v4.652h-2.613v-9.9H314.2l.337,1.208h.337a3.791,3.791,0,0,1,3.009-1.306C320.433,121.314,321.68,123.214,321.68,125.946Z" transform="translate(-267.262 -96.977)" fill="#192250"/>
        <path id="Path_16" data-name="Path 16" d="M348.73,125.946v5.365H346.1V126.54c0-.337.238-2.831-1.663-2.93-.931-.059-2.593.455-2.593,3.049v4.652h-2.613v-9.9h2.019l.337,1.208h.336a3.791,3.791,0,0,1,3.009-1.306C347.483,121.314,348.73,123.214,348.73,125.946Z" transform="translate(-282.672 -96.977)" fill="#192250"/>
        <path id="Path_17" data-name="Path 17" d="M365.264,126.382a4.96,4.96,0,0,1,5.108-5.068,4.871,4.871,0,0,1,5.008,5.028,4.944,4.944,0,0,1-5.088,5.068A4.876,4.876,0,0,1,365.264,126.382Zm7.523-.02a2.48,2.48,0,0,0-2.415-2.752,2.763,2.763,0,0,0,0,5.5A2.481,2.481,0,0,0,372.787,126.362Z" transform="translate(-297.504 -96.977)" fill="#192250"/>
        <path id="Path_18" data-name="Path 18" d="M400.315,121.543l-3.207,9.9h-3.841l-3.207-9.9h2.633l2.3,7.286h.4l2.3-7.286Z" transform="translate(-311.631 -97.108)" fill="#192250"/>
        <path id="Path_19" data-name="Path 19" d="M425.6,129.41v1.9H425a2.217,2.217,0,0,1-2.3-1.267,3.622,3.622,0,0,1-3.128,1.366c-2.237,0-3.663-1.148-3.663-2.93,0-3.088,4.217-3.365,6.117-3.464-.04-1.148-.673-1.563-1.682-1.563-1.405,0-1.5.851-1.5.851h-2.475c.178-1.762,1.624-2.989,4.038-2.989,2.355,0,4.019,1.168,4.019,4.038v2.633C424.428,129.134,424.843,129.41,425.6,129.41Zm-3.6-2.257v-.2c-1.8.2-3.583.416-3.583,1.445C418.41,129.906,421.834,129.787,421.993,127.154Z" transform="translate(-326.36 -96.977)" fill="#192250"/>
        <path id="Path_20" data-name="Path 20" d="M446.474,126.778a3.475,3.475,0,0,1-2.356.832,3.34,3.34,0,0,1-3.544-3.287v-4.593H438.6v-1.94h.99a1.081,1.081,0,0,0,1.128-1.167v-1.98h2.4v2.969H445.6v2.118h-2.494v4.435a1.211,1.211,0,0,0,1.267,1.188,2.531,2.531,0,0,0,1.148-.337Z" transform="translate(-339.281 -93.177)" fill="#192250"/>
        <path id="Path_21" data-name="Path 21" d="M458.423,112.876a1.685,1.685,0,0,1,1.7-1.683,1.664,1.664,0,0,1,1.663,1.683,1.686,1.686,0,0,1-1.663,1.663A1.707,1.707,0,0,1,458.423,112.876Zm2.97,12.67h-2.534v-9.9h2.534Z" transform="translate(-350.576 -91.211)" fill="#192250"/>
        <path id="Path_22" data-name="Path 22" d="M469.6,126.382a4.96,4.96,0,0,1,5.108-5.068,4.871,4.871,0,0,1,5.008,5.028,4.945,4.945,0,0,1-5.088,5.068A4.876,4.876,0,0,1,469.6,126.382Zm7.523-.02a2.48,2.48,0,0,0-2.415-2.752,2.763,2.763,0,0,0,0,5.5A2.48,2.48,0,0,0,477.124,126.362Z" transform="translate(-356.944 -96.977)" fill="#192250"/>
        <path id="Path_23" data-name="Path 23" d="M506.523,125.946v5.365H503.89V126.54c0-.337.237-2.831-1.663-2.93-.931-.059-2.593.455-2.593,3.049v4.652h-2.613v-9.9h2.019l.337,1.208h.336a3.791,3.791,0,0,1,3.009-1.306C505.276,121.314,506.523,123.214,506.523,125.946Z" transform="translate(-372.565 -96.977)" fill="#192250"/>
      </g>
    </g>
    <g id="Group_21" data-name="Group 21" transform="translate(35.729 34.01)">
      <rect id="Rectangle_34" data-name="Rectangle 34" width="60.988" height="60.988" fill="#192250"/>
      <path id="Path_24" data-name="Path 24" d="M98.891,49.608H91.781l-9.56,10.18V49.608H68.406V63.122c0,2.893-2.143,4.573-4.984,4.573s-4.984-1.679-4.984-4.573V49.608H51.327V63.226c0,6.1,4.924,9.6,10.478,10.165H51.327V97.172h7.111V88.358h3.106l6.571,8.814H98.891v-4.8H90.556V78.194h8.335V71.919L88.7,61.483l10.193-10.4ZM75.109,66.115V77.148c-1.514-2.557-5-3.744-10.165-3.757C69.557,72.923,73.82,70.434,75.109,66.115ZM58.438,78.194h6.506c2.675,0,3.759,1.037,3.759,2.664s-1.084,2.7-3.759,2.7H58.438ZM83.445,92.369H75.109V95.7l-5.867-7.689c4.467-.822,6.774-3.132,6.774-7.155a7.933,7.933,0,0,0-.42-2.664h7.849ZM91.781,73.39H82.22V63.182Z" transform="translate(-44.615 -42.896)" fill="#fff"/>
    </g>
  </g>
</svg>
