<svg width="17" height="15" viewBox="0 0 17 15" fill="none" xmlns="http://www.w3.org/2000/svg">
<path d="M8.49938 0C8.9709 0 9.40589 0.251116 9.64497 0.662946L16.8174 12.9844C17.0598 13.3996 17.0598 13.9118 16.824 14.327C16.5882 14.7422 16.1466 15 15.6718 15H1.32699C0.852156 15 0.410523 14.7422 0.174764 14.327C-0.0609955 13.9118 -0.057675 13.3962 0.181405 12.9844L7.35379 0.662946C7.59287 0.251116 8.02786 0 8.49938 0ZM8.49938 4.28571C8.05775 4.28571 7.70245 4.64397 7.70245 5.08929V8.83929C7.70245 9.2846 8.05775 9.64286 8.49938 9.64286C8.94102 9.64286 9.29632 9.2846 9.29632 8.83929V5.08929C9.29632 4.64397 8.94102 4.28571 8.49938 4.28571ZM9.56196 11.7857C9.56196 11.5016 9.45001 11.229 9.25074 11.0281C9.05147 10.8272 8.7812 10.7143 8.49938 10.7143C8.21757 10.7143 7.9473 10.8272 7.74803 11.0281C7.54876 11.229 7.43681 11.5016 7.43681 11.7857C7.43681 12.0699 7.54876 12.3424 7.74803 12.5433C7.9473 12.7443 8.21757 12.8571 8.49938 12.8571C8.7812 12.8571 9.05147 12.7443 9.25074 12.5433C9.45001 12.3424 9.56196 12.0699 9.56196 11.7857Z" fill="#D4351C"/>
</svg>
